Coordinates
version=1
nRows=5
nColumns=40
inDegrees=yes

Units are S.I. units (second, meters, Newtons, ...)
Angles are in degrees.

endheader
time	pelvis_tilt	pelvis_list	pelvis_rotation	pelvis_tx	pelvis_ty	pelvis_tz	hip_flexion_r	hip_adduction_r	hip_rotation_r	knee_angle_r	knee_angle_r_beta	ankle_angle_r	subtalar_angle_r	mtp_angle_r	hip_flexion_l	hip_adduction_l	hip_rotation_l	knee_angle_l	knee_angle_l_beta	ankle_angle_l	subtalar_angle_l	mtp_angle_l	lumbar_extension	lumbar_bending	lumbar_rotation	arm_flex_r	arm_add_r	arm_rot_r	elbow_flex_r	pro_sup_r	wrist_flex_r	wrist_dev_r	arm_flex_l	arm_add_l	arm_rot_l	elbow_flex_l	pro_sup_l	wrist_flex_l	wrist_dev_l
      6.36000000	     -3.54842248	     -4.98920111	     -2.08235368	      0.96611300	      0.92891724	      0.51810022	     13.96868019	      4.46573026	    -11.64074440	     18.89483254	     18.89483254	     10.42893097	      0.65304978	     -3.51973327	     13.58321679	    -11.94903798	     -2.03467125	     51.84533907	     51.84533907	     10.60475151	    -15.87653738	      3.65729157	     -7.97589329	      7.52953201	      0.65457193	     -1.46152483	    -16.45472295	    -15.74480425	     25.76219192	     45.85948559	      0.00000000	      0.00000000	     28.44329684	    -16.29048514	     -9.46453470	     55.91776899	     46.02378999	      0.00000000	      0.00000000
      6.38014286	     -3.38445098	     -5.00097823	     -1.52996184	      0.96485783	      0.92839578	      0.51990651	     13.74487766	      4.51315348	    -11.83230322	     19.46080472	     19.46080472	     10.96912240	      0.05594602	     -3.64892499	     15.24872890	    -12.33011744	     -1.97659434	     53.60903406	     53.60903406	     10.91926045	    -17.67874428	      5.19087339	     -8.10173161	      7.42968967	      0.69188823	      0.92269156	    -16.40469084	    -15.61855788	     25.60877934	     45.90002232	      0.00000000	      0.00000000	     26.02404677	    -15.40337370	     -8.60984391	     53.09855464	     45.92608264	      0.00000000	      0.00000000
      6.40028571	     -3.04738275	     -5.06984332	     -0.99027736	      0.96367777	      0.92812299	      0.52178769	     13.30276610	      4.65924087	    -11.94308359	     20.00961126	     20.00961126	     11.59294268	     -0.59848933	     -3.24175288	     16.85671697	    -12.77058809	     -1.86656820	     55.42744937	     55.42744937	     13.11523590	    -18.39787517	     11.18981029	     -8.34871704	      7.33443749	      1.14691213	      3.97417352	    -16.45222782	    -15.65249598	     23.37954943	     46.10146097	      0.00000000	      0.00000000	     24.27824280	    -14.31417730	     -6.94781513	     48.78535403	     45.82116814	      0.00000000	      0.00000000
      6.42042857	     -2.59797157	     -5.10612995	     -0.49333692	      0.96258583	      0.92792289	      0.52361482	     12.63865563	      4.77250295	    -12.12496551	     20.37922715	     20.37922715	     12.10610210	     -0.97157001	     -3.39565320	     18.00612394	    -13.37522058	     -2.19633726	     56.30145853	     56.30145853	     13.39410551	    -19.04363823	     11.38549704	     -8.91365130	      7.16765059	      1.93682551	      5.75071108	    -16.58349570	    -15.65315517	     24.00287471	     46.09493595	      0.00000000	      0.00000000	     21.65116294	    -12.88098383	     -6.49407785	     47.47473521	     45.74443934	      0.00000000	      0.00000000
      6.44057143	     -2.43695332	     -5.18764400	      0.10852099	      0.96098564	      0.92725550	      0.52513516	     12.47915065	      5.00639378	    -11.91203286	     21.00178745	     21.00178745	     12.69456101	     -2.38163302	     -2.75345091	     19.82158040	    -13.73152502	     -1.92171204	     57.29248242	     57.29248242	     15.94139684	    -19.19862681	     17.73257382	     -8.98206689	      7.15175744	      1.32883909	      9.48421717	    -16.35278420	    -15.95277231	     22.43103397	     46.28376860	      0.00000000	      0.00000000	     19.75238878	    -12.48267141	     -5.09508066	     41.65741373	     45.62529105	      0.00000000	      0.00000000
